<svg width="80" height="59" viewBox="0 0 80 59" fill="none" xmlns="http://www.w3.org/2000/svg">
<path d="M76.3427 19.1874V8.07208C76.3427 4.30299 73.4191 1.23773 69.7254 0.940493L40.496 0.882529C26.4745 0.882549 26.4293 0.882526 20.2148 0.8826C18.2054 0.882576 18.5439 0.824644 16.4835 0.882538L14.2574 0.882529H8.04245C4.07739 0.882529 0.852905 4.10685 0.852905 8.07208V51.209C0.852905 55.174 4.07722 58.3985 8.04245 58.3985H69.1531C73.1182 58.3985 76.3427 55.1742 76.3427 51.209V40.0937C78.4303 39.3492 79.9374 37.3728 79.9374 35.0326V24.2484C79.9374 21.9082 78.4303 19.9319 76.3427 19.1874ZM72.7478 51.209C72.7478 53.1906 71.1348 54.8037 69.1531 54.8037H8.04245C6.06085 54.8037 4.44776 53.1906 4.44776 51.209V8.07208C4.44776 6.09047 6.06085 4.47739 8.04245 4.47739H69.1531C71.1348 4.47739 72.7478 6.09047 72.7478 8.07208V18.8563H61.9636C56.0168 18.8563 51.1794 23.6937 51.1794 29.6405C51.1794 35.5874 56.0168 40.4248 61.9636 40.4248H72.7478V51.209ZM76.3427 35.0326C76.3427 36.0243 75.5371 36.8301 74.5453 36.8301H61.9636C57.9985 36.8301 54.7741 33.6058 54.7741 29.6405C54.7741 25.6755 57.9984 22.451 61.9636 22.451H74.5453C75.5369 22.451 76.3427 23.2566 76.3427 24.2484V35.0326Z" fill="#710157"/>
</svg>
