<svg width="80" height="80" viewBox="0 0 80 80" fill="none" xmlns="http://www.w3.org/2000/svg">
<path d="M76.1119 40.6848V29.5695C76.1119 25.8004 73.1883 22.7351 69.4945 22.4379L59.172 4.40801C58.2154 2.7405 56.6707 1.54867 54.8224 1.05378C52.9829 0.562254 51.0592 0.820402 49.4128 1.77868L14.0265 22.3799H7.81161C3.84655 22.3799 0.62207 25.6042 0.62207 29.5695V72.7064C0.62207 76.6715 3.84639 79.8959 7.81161 79.8959H68.9223C72.8874 79.8959 76.1119 76.6716 76.1119 72.7064V61.5911C78.1994 60.8466 79.7065 58.8702 79.7065 56.5301V45.7458C79.7065 43.4056 78.1994 41.4293 76.1119 40.6848ZM65.3175 22.3799H49.6516L61.4011 15.5394L65.3175 22.3799ZM59.6152 12.4199L42.5072 22.3799H35.411L57.8408 9.3209L59.6152 12.4199ZM51.2224 4.88538C52.035 4.4097 52.9846 4.28332 53.8921 4.52563C54.8101 4.77131 55.5755 5.36461 56.0512 6.19482L56.0549 6.2014L28.2669 22.3799H21.1711L51.2224 4.88538ZM72.517 72.7064C72.517 74.688 70.9039 76.3011 68.9223 76.3011H7.81161C5.83001 76.3011 4.21693 74.688 4.21693 72.7064V29.5695C4.21693 27.5879 5.83001 25.9748 7.81161 25.9748H68.9223C70.9039 25.9748 72.517 27.5879 72.517 29.5695V40.3537H61.7328C55.7859 40.3537 50.9485 45.1911 50.9485 51.1379C50.9485 57.0848 55.7859 61.9222 61.7328 61.9222H72.517V72.7064ZM76.1119 56.5301C76.1119 57.5217 75.3062 58.3275 74.3144 58.3275H61.7328C57.7677 58.3275 54.5432 55.1032 54.5432 51.1379C54.5432 47.1729 57.7675 43.9484 61.7328 43.9484H74.3144C75.3061 43.9484 76.1119 44.754 76.1119 45.7458V56.5301Z" fill="#710157"/>
</svg>
