<svg width="249" height="78" viewBox="0 0 249 78" fill="none" xmlns="http://www.w3.org/2000/svg">
<path fill-rule="evenodd" clip-rule="evenodd" d="M68.2213 74.5928L68.9928 70.1672L73.6344 64.9095H71.8547L68.4887 68.7609L66.4976 64.9095H64.7179L67.4804 70.1519L66.6937 74.5928H68.2213ZM76.9062 73.3294C75.8266 73.3294 75.0551 72.528 75.2792 71.2902C75.5032 70.0957 76.5115 69.3096 77.6063 69.3096C78.7139 69.3096 79.4574 70.0676 79.246 71.2902C79.022 72.528 77.9857 73.3294 76.9062 73.3294ZM76.6515 74.7357C78.5179 74.7357 80.3256 73.3703 80.6897 71.2902C81.0691 69.2101 79.7094 67.8906 77.8584 67.8906C75.9946 67.8906 74.2276 69.2101 73.8483 71.2902C73.4842 73.3703 74.7878 74.7357 76.6515 74.7357ZM88.9391 71.5582C88.7151 72.8649 87.8035 73.3294 86.9608 73.3294C86.1766 73.3294 85.6724 72.7679 85.8812 71.6832L86.5279 68.0309H85.0817L84.4096 71.8542C84.0582 73.7225 84.8169 74.7357 86.4286 74.7357C87.1288 74.7357 88.0556 74.3835 88.575 73.6383L88.4197 74.5928H89.8633L91.0142 68.0309H89.5705L88.9391 71.5582ZM100.58 71.9665C101.043 72.0788 101.42 72.3034 101.351 72.7373C101.252 73.2299 100.705 73.526 100.048 73.526C99.2763 73.526 98.8843 73.1457 98.925 72.5842H97.5934C97.3693 73.9752 98.5049 74.7357 99.7245 74.7357C101.239 74.7357 102.459 74.0185 102.683 72.7526C102.795 72.1069 102.655 71.1779 101.308 70.841L100.356 70.5883C100.02 70.4888 99.6812 70.3484 99.6404 70.083C99.5972 69.8711 99.6404 69.6746 99.7932 69.4908C99.9765 69.2662 100.412 69.1259 100.789 69.1259C101.239 69.1259 101.644 69.3377 101.632 69.8303H103.006C103.159 68.424 102.108 67.8906 100.944 67.8906C99.7372 67.8906 98.5736 68.6486 98.3088 69.6185C98.0415 70.6853 98.4056 71.3744 99.7372 71.7547L100.58 71.9665ZM108.279 71.0656C108.506 69.7741 109.57 69.3096 110.398 69.3096C111.225 69.3096 111.757 69.9145 111.577 70.9405L110.945 74.5928H112.389L113.033 70.8563C113.369 68.9855 112.6 67.8906 110.917 67.8906C110.242 67.8906 109.135 68.2275 108.646 69.0289L109.446 64.4603H107.999L106.22 74.5928H107.663L108.279 71.0656ZM119.796 73.3294C118.716 73.3294 117.944 72.528 118.169 71.2902C118.393 70.0957 119.403 69.3096 120.496 69.3096C121.603 69.3096 122.347 70.0676 122.138 71.2902C121.911 72.528 120.875 73.3294 119.796 73.3294ZM119.543 74.7357C121.407 74.7357 123.218 73.3703 123.582 71.2902C123.958 69.2101 122.599 67.8906 120.748 67.8906C118.884 67.8906 117.117 69.2101 116.738 71.2902C116.374 73.3703 117.677 74.7357 119.543 74.7357ZM129.489 68.0309H128.042L126.306 77.7831H127.75L128.493 73.651C128.773 74.3835 129.585 74.7357 130.482 74.7357C132.236 74.7357 133.96 73.4137 134.339 71.3183C134.718 69.2535 133.455 67.8906 131.704 67.8906C130.805 67.8906 129.865 68.2836 129.318 69.0008L129.489 68.0309ZM128.913 71.3463C129.137 70.0676 130.201 69.2943 131.268 69.2943C132.376 69.2943 133.091 70.1238 132.867 71.3463C132.643 72.5561 131.632 73.3422 130.54 73.3422C129.545 73.3422 128.689 72.6531 128.913 71.3463ZM137.455 76.3921C138.184 75.9021 139.194 74.6923 139.599 72.8215H138.087C137.876 74.1717 137.231 75.2692 136.557 76.0553L137.455 76.3921ZM157.985 68.0309H156.442L154.13 72.4566L153.399 68.0309H152.055L149.756 72.4566L149.025 68.0309H147.485L148.801 74.5928H149.98L152.391 69.9426L153.246 74.5928H154.438L157.985 68.0309ZM167.034 71.2902C167.41 69.2101 166.206 67.8906 164.355 67.8906C162.489 67.8906 160.765 69.2101 160.386 71.2902C160.022 73.3703 161.297 74.7357 163.148 74.7357C164.383 74.7357 165.687 74.2151 166.486 73.0487C166.107 72.8802 165.715 72.6965 165.391 72.528C164.956 73.1329 164.172 73.4698 163.444 73.4698C162.377 73.4698 161.677 72.8369 161.717 71.8262H166.919C166.962 71.6705 166.99 71.4459 167.034 71.2902ZM161.913 70.7721C162.237 69.7588 163.136 69.1539 164.144 69.1539C165.139 69.1539 165.755 69.7461 165.715 70.7721H161.913ZM176.429 68.0309H174.985L173.246 77.7831H174.692L175.433 73.651C175.716 74.3835 176.528 74.7357 177.424 74.7357C179.179 74.7357 180.902 73.4137 181.282 71.3183C181.659 69.2535 180.398 67.8906 178.646 67.8906C177.748 67.8906 176.808 68.2836 176.261 69.0008L176.429 68.0309ZM175.856 71.3463C176.08 70.0676 177.144 69.2943 178.211 69.2943C179.319 69.2943 180.034 70.1238 179.81 71.3463C179.583 72.5561 178.575 73.3422 177.48 73.3422C176.485 73.3422 175.632 72.6531 175.856 71.3463ZM189.712 74.5928H191.14L192.291 68.0309H190.86L190.707 68.9574C190.412 68.1994 189.46 67.8906 188.688 67.8906C186.921 67.8906 185.142 69.2101 184.762 71.3055C184.383 73.3983 185.73 74.7357 187.482 74.7357C188.296 74.7357 189.305 74.3682 189.865 73.651L189.712 74.5928ZM186.249 71.2902C186.473 70.083 187.525 69.2943 188.617 69.2943C189.585 69.2943 190.496 70.0115 190.272 71.2902C190.048 72.5842 188.968 73.3294 187.902 73.3294C186.822 73.3294 186.023 72.5 186.249 71.2902ZM202.501 68.0309H200.961L198.323 72.5204L197.299 68.0309H195.759L197.243 74.2763L195.196 77.7831H196.711L202.501 68.0309Z" fill="#710157"/>
<path fill-rule="evenodd" clip-rule="evenodd" d="M160.717 35.3441C159.283 38.8815 158.43 44.9253 159.729 48.9042C162.81 58.3374 173.348 58.5492 181.149 55.1624C182.239 55.8209 182.863 56.8622 183.861 57.3573C186.45 57.6585 187.066 55.9536 188.721 55.0424C188.103 53.5391 186.73 52.8092 185.959 51.2983C188.538 47.9829 189.783 46.2524 191.064 41.0024C192.148 36.5539 191.716 31.3243 189.635 27.9885C185.014 20.5793 167.23 19.2853 160.717 35.3441ZM236.965 37.4548C236.173 41.8651 235.483 46.1529 234.697 50.5785C234.226 53.2278 233.989 55.5554 236.517 56.1884C238.065 56.5763 242.366 56.4998 244.031 56.3262L244.968 51.482C243.567 51.3263 242.788 51.6122 241.726 51.0226C240.744 49.4862 243.537 38.1363 243.85 35.4896C247.206 35.2497 248.14 34.0909 248.578 30.8342L244.756 30.7373C244.998 28.6852 246.05 25.8548 244.889 24.2571C244.138 23.226 243.285 23.2923 242.035 23.2617C238.177 23.1647 239.572 22.8967 236.965 37.4548ZM219.978 38.2562L216.197 56.5968L222.521 56.5763L225.363 41.3878C225.851 38.7667 228.283 37.6615 233.416 37.5288L234.776 30.7909C227.109 30.4769 222.501 33.3967 219.978 38.2562ZM198.521 41.8268C194.679 43.3276 191.611 46.6532 192.36 52.1609C192.996 56.8494 198.845 57.8754 203.914 56.8801C208.899 55.9 211.866 53.7025 213.569 49.9481C214.58 47.7174 216.403 38.588 216.253 35.875C215.804 27.7996 197.182 28.3203 195.275 37.5416C196.597 37.5492 197.915 37.5339 199.239 37.5518C201.885 37.5875 201.032 37.7892 202.595 36.5411C204.013 35.4104 208.586 35.1935 209.465 36.8397C211.509 40.6681 201.312 40.7345 198.521 41.8268ZM206.06 50.2901C202.674 53.2941 196.93 52.1022 199.216 47.6638C200.411 45.3489 205.684 44.4557 208.668 43.8278C208.365 46.9262 207.769 48.7741 206.06 50.2901ZM177.208 50.3922C175.665 51.8598 166.911 53.0491 166.025 44.6598C164.429 29.5224 179.927 24.2162 183.792 32.0364C185.605 35.704 184.502 44.3 181.753 46.6098C179.296 44.9993 179.016 43.0545 174.59 47.0743C175.201 48.3351 176.564 49.1697 177.208 50.3922Z" fill="#710157"/>
<path fill-rule="evenodd" clip-rule="evenodd" d="M113.937 51.3136C115.192 52.3626 122.128 53.1793 123.098 43.8023C120.376 44.3434 114.93 45.3643 113.657 47.697C113.041 48.8277 113.081 50.5964 113.937 51.3136ZM147.754 44.7032C141.827 55.387 141.333 58.2583 130.981 57.6994C131.136 56.4079 131.329 53.4396 132.325 52.8092C135.436 52.8067 138.265 52.7276 138.441 49.4964C138.568 47.1866 134.754 30.112 134.156 25.7731L141.46 25.9161L143.477 41.2628C144.073 40.7268 148.088 32.8301 148.844 31.309C151.388 26.1892 151.062 25.1683 158.479 25.8523C157.761 28.0064 154.519 33.0369 153.16 35.316C151.377 38.3124 149.483 41.5895 147.754 44.7032ZM130.581 34.9383C131.031 36.7912 129.231 46.4056 128.552 48.427C127.197 52.4596 124.615 55.1624 120.48 56.3339C104.384 60.8999 104.195 47.7251 110.339 43.1617C114.265 40.247 119.666 41.3674 122.779 39.614C126.922 37.2838 121.328 34.4227 117.537 36.1787C114.645 37.5161 119.273 37.534 109.692 37.534C111.538 28.3177 128.961 28.2795 130.581 34.9383ZM106.367 27.1769C107.969 30.2217 106.96 35.3288 105.667 38.172C104.427 40.9055 102.057 43.1949 98.7798 44.2515C95.8568 45.1933 89.8098 44.7977 86.4387 44.8181L84.44 56.5738H77.6444L81.5629 33.9353C83.8773 22.0468 81.6138 23.2515 97.0662 23.2898C101.446 23.3 104.789 24.1754 106.367 27.1769ZM161.44 19.538L22.661 19.5329C21.6502 19.5329 20.8227 20.3623 20.8227 21.3756C20.8227 22.3888 21.6502 23.2158 22.661 23.2183L59.8751 23.323L59.2284 26.5261L48.9319 26.6409L47.9262 33.0011L57.4486 32.996L56.7154 36.5845L42.8772 36.5871C40.1885 36.5845 37.5024 36.5871 34.8162 36.5871C33.7443 36.5871 32.8659 37.4676 32.8659 38.5421C32.8659 39.6191 33.7443 40.4971 34.8162 40.4971H45.5914L45.0643 45.6374L54.2635 45.7369L53.3341 49.1289C42.8314 49.0957 32.3286 49.1263 21.8259 49.1263C20.7922 49.1263 19.9469 49.9762 19.9469 51.0124C19.9469 52.0487 20.7922 52.896 21.8259 52.896H42.5946C42.4877 56.2369 42.5106 58.9729 45.6856 59.8943L116.491 60.0194L139.258 60.0602C145.817 60.0602 149.453 59.9658 151.637 58.9831C154.863 57.5335 154.927 54.1492 156.561 46.2754L161.44 19.538ZM17.0799 23.2183C18.1188 23.2183 18.9692 22.3659 18.9692 21.3246C18.9692 20.2807 18.1188 19.4282 17.0799 19.4282H13.742C12.7006 19.4282 11.8502 20.2807 11.8502 21.3246C11.8502 22.3659 12.7006 23.2183 13.742 23.2183H17.0799ZM28.7895 40.4971C29.8284 40.4971 30.6813 39.6447 30.6813 38.6033C30.6813 37.5595 29.8284 36.707 28.7895 36.707H25.3854C24.344 36.707 23.4936 37.5595 23.4936 38.6033C23.4936 39.6447 24.344 40.4971 25.3854 40.4971H28.7895ZM16.9119 50.9997C16.9119 49.9584 16.0615 49.1033 15.0201 49.1033H2.10368C1.06232 49.1033 0.211914 49.9584 0.211914 50.9997C0.211914 52.0435 1.06232 52.896 2.10368 52.896H15.0201C16.0615 52.896 16.9119 52.0435 16.9119 50.9997ZM87.8009 38.7744C93.7181 38.7488 98.6957 39.9969 100.048 34.3436C101.568 27.9808 95.7423 28.7797 89.3719 29.086C88.9925 30.3672 87.6838 37.7177 87.8009 38.7744Z" fill="#FF005E"/>
<path fill-rule="evenodd" clip-rule="evenodd" d="M97.667 11.5086C119.263 11.5647 140.864 11.5341 162.463 11.5392C163.247 11.3299 163.105 11.2125 163.568 8.6271C163.782 7.42243 163.978 6.26881 163.69 5.07435C163.184 2.96363 161.676 1.54713 159.415 1.18216C156.798 0.755929 115.401 1.09793 110.627 1.10048C106.795 1.10048 56.7101 0.722749 54.1666 1.65177C51.6459 2.57314 51.9489 5.02586 51.7758 7.73636L51.6994 7.74912L51.6154 7.74657H38.4748C38.0344 7.74402 37.6066 7.74146 37.1941 7.74657H33.9097C32.8708 7.74657 32.0179 8.60157 32.0179 9.6429V9.66842C31.9797 10.1482 32.0892 10.4443 32.3565 10.7199C32.6977 11.2125 33.268 11.5392 33.9097 11.5392H51.6154L51.7503 11.5341C70.1944 11.5903 95.8822 11.5035 97.667 11.5086ZM28.8302 11.5392C29.8715 11.5392 30.7219 10.6868 30.7219 9.6429C30.7219 8.60157 29.8715 7.74657 28.8302 7.74657H27.8652C26.8264 7.74657 25.976 8.60157 25.976 9.6429C25.976 10.6868 26.8264 11.5392 27.8652 11.5392H28.8302Z" fill="#710157"/>
</svg>
